<?xml version="1.0" encoding="utf-8"?>
<!-- Generator: Adobe Illustrator 27.1.1, SVG Export Plug-In . SVG Version: 6.00 Build 0)  -->
<svg version="1.1" id="Layer_1" xmlns="http://www.w3.org/2000/svg" xmlns:xlink="http://www.w3.org/1999/xlink" x="0px" y="0px"
	 viewBox="0 0 609.4 609.4" style="enable-background:new 0 0 609.4 609.4;" xml:space="preserve">
<style type="text/css">
	.st0{fill-rule:evenodd;clip-rule:evenodd;fill:#1D1E50;}
	.st1{fill-rule:evenodd;clip-rule:evenodd;fill:#FFFFFF;}
	.st2{fill-rule:evenodd;clip-rule:evenodd;fill:#F0AC00;}
</style>
<g>
	<path class="st0" d="M247.9,39.7c15.8-9.2,30.4-18.7,43.5-28.5l13.3-10l13.3,10c28.9,21.7,61.7,39.5,94.4,55
		c38.5,18.2,78.5,33.8,118.6,48.2l15.1,5.4l-0.4,16c-0.2,7.5-0.4,14.4-0.5,20.9c-0.1,6.8-0.3,13.3-0.4,19.6
		c-0.8,39.8-1.5,72.3-4.5,102.5c-3,31-8.4,59.4-18.6,90.3c-8.6,26-19.8,50.1-33.4,72.5c-13.4,22.2-29.2,42.9-47.2,62.3
		c-17.7,19.1-37.2,36.7-58.1,52.9c-20.9,16.1-43.4,31.1-67.1,45l-11.2,6.6l-11.2-6.6c-23.8-13.9-46.2-28.8-67.1-45
		c-21-16.2-40.4-33.8-58.1-52.9c-17.9-19.4-33.7-40.1-47.2-62.3C107.6,419.1,96.3,395,87.8,369c-10.2-30.9-15.6-59.3-18.6-90.3
		c-3-30.2-3.6-62.6-4.5-102.5l0-0.2c-0.3-12.5-0.5-25.7-0.9-40.3l-0.4-16l15.1-5.4c20.7-7.4,41.3-15.2,61.6-23.4
		C176.8,76.1,213.5,59.6,247.9,39.7"/>
	<path class="st1" d="M204.1,80.4c36.7-17.4,69.7-36.1,97.2-56.7l3.4-2.5l3.4,2.5c27.5,20.6,60.5,39.3,97.2,56.7
		c36.9,17.5,77.5,33.5,120.1,48.8l3.8,1.4l-0.1,4c-0.4,14.5-0.7,27.9-0.9,40.6c-1.6,78.8-2.7,128.3-22.3,187.9
		c-16.3,49.5-42.8,91.9-76.9,128.7c-33.9,36.7-75.2,67.7-121.5,94.8l-2.8,1.7l-2.8-1.7c-46.2-27.1-87.6-58.1-121.5-94.8
		c-34-36.8-60.5-79.2-76.9-128.7C83.9,303.5,82.9,254,81.3,175.2c-0.3-12.7-0.5-26.1-0.9-40.6l-0.1-4l3.8-1.4
		C126.7,113.9,167.2,97.9,204.1,80.4 M304.7,581.8c91.6-53.6,163.7-122.9,195.8-220.5c22.5-68.4,20.3-123.7,23-226.8
		c-85.7-30.7-163-64.5-218.8-106.3C249,70,171.6,103.8,85.9,134.5c2.7,103.1,0.4,158.5,23,226.8
		C141.1,458.9,213.2,528.1,304.7,581.8z"/>
	<path class="st2" d="M212.9,523.3c0.3,0.3,0.7,0.6,1,0.9C213.5,523.9,213.2,523.6,212.9,523.3 M211.1,521.7c0.4,0.3,0.7,0.6,1.1,1
		L211.1,521.7z M209.3,520.2c0.4,0.3,0.7,0.6,1.1,1C210,520.8,209.7,520.5,209.3,520.2z M202.2,513.7c0.4,0.4,0.8,0.7,1.2,1.1
		C203,514.5,202.6,514.1,202.2,513.7z M200.5,512.1c0.4,0.4,0.8,0.8,1.2,1.1C201.3,512.9,200.9,512.5,200.5,512.1z M198.8,510.5
		c0.4,0.4,0.8,0.8,1.3,1.2C199.6,511.3,199.2,510.9,198.8,510.5z M197.1,508.8c0.4,0.4,0.8,0.8,1.3,1.2
		C197.9,509.6,197.5,509.2,197.1,508.8z M195.3,507.1c0.5,0.4,0.9,0.9,1.4,1.3C196.3,508,195.8,507.6,195.3,507.1z M193.6,505.4
		c0.5,0.5,0.9,0.9,1.4,1.4C194.6,506.4,194.1,505.9,193.6,505.4z M192,503.8c0.5,0.5,1,1,1.4,1.4C192.9,504.7,192.4,504.3,192,503.8
		z M190.3,502.1c0.5,0.5,1,1,1.5,1.5C191.3,503.1,190.8,502.6,190.3,502.1z M188.7,500.4c0.5,0.5,0.9,1,1.4,1.4
		C189.6,501.4,189.1,500.9,188.7,500.4z M186.9,498.6c0.5,0.5,1,1,1.5,1.5C187.9,499.7,187.4,499.2,186.9,498.6z M185.3,497
		c0.5,0.5,1,1.1,1.5,1.6C186.3,498,185.8,497.5,185.3,497z M183.7,495.3c0.5,0.5,1,1.1,1.5,1.6C184.7,496.3,184.2,495.8,183.7,495.3
		z M182.1,493.6c0.5,0.5,1,1.1,1.5,1.6C183.1,494.6,182.6,494.1,182.1,493.6z M180.4,491.8c0.5,0.6,1,1.1,1.6,1.7
		C181.5,492.9,180.9,492.4,180.4,491.8z M178.9,490.2c0.5,0.5,1,1.1,1.5,1.6C179.9,491.3,179.4,490.7,178.9,490.2z M177.3,488.4
		c0.5,0.5,0.9,1,1.4,1.5C178.2,489.4,177.8,488.9,177.3,488.4z M175.8,486.7c0.5,0.5,0.9,1,1.4,1.5
		C176.7,487.7,176.2,487.2,175.8,486.7z M174.3,485c0.4,0.5,0.9,1,1.3,1.5C175.2,486,174.7,485.5,174.3,485z M172.6,483.1
		c0.5,0.5,0.9,1.1,1.4,1.6C173.6,484.2,173.1,483.7,172.6,483.1z M171.1,481.4c0.5,0.6,1,1.1,1.5,1.7
		C172.1,482.5,171.6,481.9,171.1,481.4z M169.7,479.7c0.4,0.5,0.9,1,1.3,1.5C170.5,480.7,170.1,480.2,169.7,479.7z M168.2,477.9
		c0.4,0.5,0.8,0.9,1.2,1.4C168.9,478.8,168.5,478.4,168.2,477.9z M166.7,476.2c0.4,0.4,0.7,0.9,1.1,1.3
		C167.5,477.1,167.1,476.6,166.7,476.2z M165.3,474.4c0.4,0.4,0.7,0.9,1.1,1.3C166,475.3,165.6,474.9,165.3,474.4z M163.8,472.6
		c0.4,0.5,0.8,0.9,1.2,1.4C164.5,473.5,164.1,473,163.8,472.6z M162.4,470.8c0.3,0.4,0.7,0.8,1,1.3
		C163,471.7,162.7,471.3,162.4,470.8z M160.9,469c0.3,0.4,0.6,0.8,0.9,1.1C161.5,469.7,161.2,469.4,160.9,469z M159.4,467.1
		c0.3,0.4,0.6,0.8,0.9,1.2C160.1,467.9,159.8,467.5,159.4,467.1z M158.1,465.4c0.3,0.4,0.6,0.7,0.8,1.1
		C158.7,466.1,158.4,465.8,158.1,465.4z M220,522.1l303.1-371.3c0.1-5.3,0.3-10.8,0.4-16.4C487,121.4,452,107.8,419.6,93.2
		L142.3,432.8C163.1,466.3,189.4,495.8,220,522.1z"/>
	<path class="st1" d="M334.3,436.1c5.7,18.2,12.3,40.7,21.9,57.2c4.7,8.1,8.6,5.1,5.8-4C359.1,480,337.5,438.7,334.3,436.1"/>
	<path class="st1" d="M326.2,437.9c2.6,11.1,8.4,60.1,16.9,65.3c2.6,1.6,4.6-0.7,4.4-3.7C346.7,486,332.6,452.4,326.2,437.9"/>
	<path class="st1" d="M345.6,436.7c-1.1-1.5-2.2-2.9-3.3-4.3c6.7,14.3,22.8,57.4,31.9,49.9C379.8,477.7,350.3,443.1,345.6,436.7"/>
	<path class="st1" d="M267.3,430.3c-9.8,14.4-17.8,27.4-25.4,41.1c-5.6,10.1-1.8,17.2,5.4,7.2C261.3,459,264.2,439.7,267.3,430.3"/>
	<path class="st1" d="M264.5,498.9c-0.1,2.9,1.9,5.2,4.4,3.6c4.4-2.8,7.4-13.1,8.8-17.9c5.1-17.5,7.3-34.6,8.4-49.8
		c-4.8,12.6-10,26.8-14.1,38.9C270.4,478.5,264.7,494.6,264.5,498.9"/>
	<path class="st1" d="M276.7,433.7c-6.8,12.3-20.9,40.4-25.5,54.7c-3,9.3,0.7,14.6,6.4,4.5C268.6,473.4,272.5,454.5,276.7,433.7"/>
	<path class="st1" d="M295.6,440c-3.6,14.2-6.8,23.1-9.3,37.3c-0.9,5.3-4.8,30,0.4,32.6c5.4,2.7,8-23,8.5-26.2
		C297.6,468,297,457.6,295.6,440"/>
	<path class="st1" d="M306.3,440.2c-1.1,19.2-5,47.3-5.6,67.9c-0.4,12.5,8.1,17.9,9.7,0.6C311.9,491.9,309.2,454,306.3,440.2"/>
	<path class="st1" d="M317.7,441.4c-0.4,7.7-3.7,71.7,8.6,69.2c2.9-0.6,2.9-5.4,2.8-8.1C328.2,482.1,323,460.9,317.7,441.4"/>
	<path class="st1" d="M453.3,340.9c6.2-2.7,12.9,2.1,18.7,4.2c-1.4-0.5-3.5-5.4-4.5-6.6c-1.9-2.4-4.1-4.9-7.1-6
		c-8-2.9-25.7,8.4-28,16.4c-2.4-5.7-3.4-16.8-0.5-22.6c1.3-2.6,3.2-4.3,6.1-4.9c0.9-0.2,8.5,0.1,8.5,1.2c0.3-2.4-1.1-3.6-3-4.7
		c-3.3-1.9-5-2.9-5.4-2.9c-7.2-1.9-11.9-0.6-14.1,4c-3.5,4.6-5.5,8.7-5.8,12.3c-0.6,8,0.4,16.3-8.9,18c-7.6,1.4-17.5-0.4-24.1-4.7
		c3.3-3.9,8.7-6.4,12.8-9.4c-6.2,1.2-16.8,6.2-22.1,0.2c4.3-2.7,8.6-6.1,12.5-9.5c-7.3,2.6-16.8,3.9-23.6-0.7
		c2.3-0.7,4.5-1.7,6.7-2.8c-8.8,2.3-19.6-4.8-21.4-13.1c-0.1-0.4-0.3-3.6,0-6.3c0.5-1.2,1-2.4,1.4-3.5c8.8,6.2,22.2,6.2,32.8,6.7
		c-7.8-4.5-16.1-9.2-22.1-16c-5.2-5.8-9.4-11.5-9.1-19.1c0.1-3.9,3.8-19.2,1.6-22c0.6,0.7,2,1.6,2.7,2.5c-0.2-8.2-5.7-17.4-8.2-25.3
		c1.4,0.5,3.2,0.1,4.6,0.5c-1-1.1-12.2-11.9-11.1-12.9c2-1.7,4.6-0.5,7.2-0.8c-4.8-4-14.3-12.5-14.9-19.3c4.4,0.8,10,3.1,14.4,2.5
		c-4.3-2.2-8.5-7-12.1-10.3c-5.1-4.7-2.5-4.4,2.8-5.8c5.9-1.6,10.6-4.9,13.2-10.6c0,0-4.4,1.9-9.4,1.7c-4.4-0.3-11.2-4-13.9-7.3
		c-0.3-0.3,15.7-11.7,18.7-11.5c7,0.4,14,10.4,14,10.4s2.3-9.3-2.4-19.4c-2.1-4.6-5.4-6.7-8.5-7.6c-8.1-2.3-23.3,4.9-30,8.8
		c-2.2,1.3-5.6,3.1-8.3,2.1c-3-1.1-11-11.2-10.8-14c4.9,1.6,33,10,35.1,2c1-3.6-3.4-10.3-7.4-12c-4-1.7-17.4-6.3-34.4,2.4
		c-17.1,8.7-29.9-1-29.9-1s-3,10.7,6.4,17.7c0,0-4.3-0.7-7-1.7c0.5,9.7,3.9,11.9,8.6,16c-3.6,2.7-7.5,1.2-12.6-0.9
		c3.1,4.7,9.6,9.5,14.3,12.7c8.1,5.5-1.9,12.2-7.7,14.6c3.7-0.3,10.8-2.2,13.8-4.4c-5.2,7.3-12.7,11-20.5,15.1c3.7-0.1,7.3,0,11-0.3
		c-2.2,5.7-10.4,11.4-13.6,13.3c1.4-0.1,4.6-0.6,5.9-1c0.7,7.2-7.5,13.8-10.7,19.7c1.9-0.3,3.8-0.8,5.6-1.5c-1.7,5.8-5,11.6-8.9,16
		c2-0.7,3.7-1.5,5.6-2.5c-3.2,1.6,1.2,25.7,3.2,35.8c3,14.8-21.9,28.9-34.8,30.4c10.7,2.2,25.6,1,35.2-4.5c3.4-2,3,9.2,2.9,10.1
		c-1.8,8.4-12.5,15.6-21.3,13.4c2.2,1,4.4,2,6.8,2.7c-6.7,4.7-16.3,3.6-23.6,1.1c3.9,3.3,8.2,6.6,12.6,9.2c-5.2,6-15.9,1.2-22.1,0.1
		c4.2,3,9.6,5.4,12.9,9.2c-6.5,4.4-16.4,6.3-24,5.1c-9.3-1.6-8.5-9.8-9.2-17.8c-0.3-3.6-2.3-7.6-6-12.2c-2.3-4.5-7-5.8-14.2-3.8
		c-0.3,0-2.1,1-5.4,3c-1.9,1.1-3.3,2.3-2.9,4.7c-0.1-1.1,7.6-1.6,8.5-1.4c2.9,0.6,4.8,2.2,6.1,4.8c2.9,5.7,2.1,16.9-0.2,22.6
		c-2.4-7.9-20.4-18.9-28.3-15.9c-2.9,1.1-5.1,3.7-7,6.1c-1,1.3-3,6.2-4.4,6.7c5.8-2.1,12.5-7,18.7-4.5c4.3,1.8,7.3,5.8,8.8,10.2
		c7.1,20.9-21.9,10.1-24.1,25.3c-0.6,4.2,0.1,10.5,2.1,14.3c1,1.9,2.9,3.5,4.8,4.5c1,0.6,4.8,1,5.4,1.6c-2.5-2.8-5.5-6.4-4.8-10.6
		c0.8-4.7,7.8-11.5,12.9-10.4c2,0.4,3.5,2.1,5.5,2.7c2.3,0.6,6,0.5,8.3,0.1c4.7-0.8,8.9-2.9,13.7-3.5c6-0.6,15.2,0.8,16.1,8.3
		c0.4,3.3-2.5,5.6-3.2,8.7c-0.5,2.1,0.7,5.2-0.1,7c-0.8,1.7-4.6,3.8-6.4,4.3c4.9-1.3,10.1,0.5,14.9-1.1c4.9-1.6,8.9-6.7,9.7-11.9
		c0.6-3.6-0.8-7.4-3-10.3c-1.1-1.4-9.5-11.2-11.1-11c10.4-0.8,22.6-5.4,30.5-12.2c-0.1,5.5,0.5,9.5,1.8,15c1-5.5,7.6-8.7,11.6-12
		c-0.5,6.4,2.1,11.7,5,17.1c-6.7-12.6,16.9-29.9,24.8-16.4c10.9,18.7-11.9,58.7-26.1,69c6.5-1.8,11.2-5.3,12.9-6.4
		c1,1.4,2.8,4.1,1.5,9.6c4.3-6.4,5.9-7.9,7.9-9.6c1,1.4,2.9,5.5,2.1,9.4c1-2.1,4-7.8,6.5-9.1c3,3.5,3,6.7,2.8,11.3
		c0.8-2.2,5.3-9.2,6.9-10.8c2.5,1.7,3.4,13.1,3.7,16.4c0.9-3.4,2.9-13.7,4.3-16.4c3.5,2.9,5.7,12.8,6.7,17.2
		c0.9-4.1,1.9-13.2,4.6-16.3c2.7,2.8,4.4,9.3,5,11.2c-0.1-3.3,2.2-9.5,1.9-12.4c3.6,1.1,6,7.1,6.9,10.3c-0.1-2.8,0.5-7,1.3-9
		c2.4,1.5,4.2,5.1,5.1,7.2c-0.4-2.2,0.4-8.2,0.2-9.3c3.2,3.5,9.9,6,14.3,7.7c-10-10.8-42.5-81.3-6-72.3c9,2.2,10,10.3,10,18.9
		c2.8-5.5,5.3-10.8,4.7-17.2c4,3.3,10.7,6.3,11.8,11.8c1.2-5.5,1.8-9.5,1.6-15c8.1,6.7,20.3,11.1,30.7,11.7
		c-1.7,0-9.9,9.8-10.9,11.2c-2.2,3-3.5,6.7-2.9,10.4c1,5.2,5,10.1,9.9,11.7c4.9,1.5,10-0.4,14.9,0.9c-1.8-0.5-5.6-2.6-6.5-4.3
		c-0.9-1.8,0.3-4.9-0.2-7c-0.7-3-3.7-5.3-3.4-8.6c0.8-7.6,10-9.1,16-8.6c4.8,0.4,9.1,2.5,13.8,3.2c2.3,0.4,6.1,0.4,8.3-0.2
		c2-0.6,3.4-2.3,5.5-2.8c5-1.1,12.1,5.5,13,10.2c0.8,4.2-2.1,7.9-4.6,10.7c0.5-0.6,4.3-1.1,5.3-1.7c1.9-1.1,3.8-2.7,4.7-4.6
		c1.9-3.8,2.5-10.2,1.9-14.3c-2.4-15.2-31.2-3.9-24.5-24.9C446.1,346.8,449.1,342.8,453.3,340.9"/>
	<path class="st1" d="M177.1,247.7c11.7-0.2,23.2-2.3,34.6-6.1c-0.7-0.1-1.5-0.2-2.4-0.3c-0.8-0.1-1-1-0.7-1.6
		c3-6.2-0.2-6.9-6.7-8.2c-0.6-0.1-1.1-1-0.7-1.5c0.6-0.8,4.6-4.9,6.3-8.3c-16.8,2.8-34.1,2.2-51,0c-15.8-2.1-29.6-7.1-43.8-13.6
		C126.5,214.5,123.7,236,177.1,247.7"/>
	<path class="st1" d="M168,198L168,198c11.8,5.4,25.1,8.3,38.3,8.9c2-3,0-5.2-6.5-9.5c-0.9-0.6-0.4-2,0.8-1.7c3.5,0.7,7.6,0,11-0.7
		c-0.4-1.3-0.9-2.5-1.4-3.6c-9.7-1.2-19.4-4.5-27.4-9.7h0c-0.4-0.1-0.8-0.2-1.2-0.3c-11.1-3.2-19.8-13.4-27.7-20.8
		c-7.8-7.3-13.3-15.4-20.3-23.1C132.6,163.8,149.2,181.9,168,198"/>
	<path class="st1" d="M177.6,174L177.6,174c9.7,6.2,19.6,10.5,31,12.8c-1.3-5-0.5-9,8-11.5c-9.3-1.7-17.3-6.5-24.9-11.3
		c-7.1-4.5-12.7-10.3-18.9-15.9c-8.1-7.3-15.7-15.1-23.2-22.9c2.1,11.7,9.1,23.3,16.2,33C168.7,162.1,172.8,168.6,177.6,174"/>
	<path class="st1" d="M159.1,216.1c15.9,1.7,31.2,2.4,47.2,0.9l-6-2.8c-0.6-0.3-0.7-1.1-0.2-1.5c0.5-0.4,1-0.8,1.5-1.2
		c-10.6-0.5-20.4-3.3-29.5-8.1c-13.4-0.8-29.2-5.7-42.4-12.2c-4.9-2.4-9.4-5-13.4-7.6C127.8,199.3,141.9,209.5,159.1,216.1"/>
	<path class="st1" d="M221.5,296.6c4-0.6,8.1-1.8,12.1-3.4h0c7.7-4.8,14.7-10.4,20.7-17.4c-0.7,0-1.4,0-2.2,0.2
		c-1,0.2-2.6,1.3-3.1,0c-2-6.1-3.5-9.1-10.8-8.7c-1,0.1-1.5-0.8-1.3-1.6c-5.9,14-18.8,24.5-33.9,30.6
		C208.6,296.6,216.1,297.5,221.5,296.6"/>
	<path class="st1" d="M194,288.5c7.1-0.9,14.6-3.5,21.7-6.3c0.1-0.1,0.2-0.2,0.3-0.3c6.6-6.3,10.7-13.1,14.7-20.4
		c-1,0.2-2,0.3-2.9,0.4c-0.9,0.1-1.4-0.8-1.3-1.5c0.5-3,0.4-4.6-0.8-5.5c-8.4,6.5-18.1,11.7-28.4,15.9c-11.3,6.6-22.7,13.4-35.6,16
		C172.4,287.7,183.4,289.8,194,288.5"/>
	<path class="st1" d="M189.1,269.3L189.1,269.3c10.7-5.7,20.6-12.3,30.5-19.4c0.2-3-0.2-4.8-1.5-6c-11.1,4.9-23.1,7.4-35.2,7.7
		c-1.5,0.8-3,1.5-4,1.8c-4.1,1.1-8.6,1.6-12.9,1.5c-9.7,0-21.7-3.2-32.4-5.4c0.3,0,14.3,17.6,35.3,20
		C175.6,270.3,182.4,270.2,189.1,269.3"/>
	<path class="st1" d="M216.8,195c0.2,1,0,2-0.6,2.8c-0.6,0.8-1.6,1.4-2.9,1.6c-0.5,0.1-1.1,0.1-1.6,0.2c0.2,0.2,0.4,0.3,0.6,0.5
		c0.7,0.5,1.5,1.1,2.2,1.5c1,0.7,1.7,1.8,1.7,3c0,1.1-0.5,2.1-1.4,2.7l-1.3,1c-2,1.5-4.3,3.2-4.8,4.1c0.3,0.4,1.4,1.2,4.8,2.8
		c1,0.5,1.7,1.3,1.9,2.4c0.3,1,0.1,2-0.6,2.9c-0.6,0.8-1.2,1.5-1.8,2.2c-1.3,1.7-3.4,4.2-3.3,4.9c0,0,0.6,0.8,4.3,1.5
		c1.2,0.2,2.1,0.8,2.7,1.8c0.6,1,0.7,2.3,0.2,3.5c-1,2.2-1,2.9-1,2.9c0.5,0.4,2.8,0.6,4.5,0.8c0.7,0.1,1.3,0.1,2,0.2
		c1,0.1,1.9,0.6,2.5,1.4c0.6,0.8,0.9,1.7,0.8,2.5l-0.1,0.5c-0.3,2.6-0.6,5,0.1,5.8c0.2,0.3,1,0.7,3.2,0.9c1.2,0.1,2.3,0.6,3,1.4
		c0.7,0.8,1.1,1.9,0.9,3.1c-0.3,1.7,0,2.3,0,2.3c0,0,0.3,0.1,1,0.1c1.1,0,2.5-0.3,4.1-0.5c1.1-0.2,2.1-0.4,3.3-0.5l0.4,0
		c1.4,0,2.6,0.6,3.4,1.7c0.8,1.2,1,2.7,0.3,4c-0.1,0.3-0.3,0.5-0.4,0.7c0.4,0,2.1-0.1,2.1-0.1c1.9,0,3.7,1.3,4.1,3l0.1,0.3l0,0.3
		c-0.2,4.2,1.8,3.8,3.4,4.5c-0.2-1-0.6-2-0.8-2.7c-0.3-1.3-0.7-2.5-0.8-3.5c-0.4-2.4-0.8-4.9-1.2-7.3c-5.5-2.3-11.4-8.1-12.5-12.6
		c-2-8.1,1.9-14.4,5.4-20c4.4-7.1,9.1-19.7,2.4-29.1c-5-7.1-16.6-11.2-24.8-15.7c-3.1-1.7-6.6-0.1-7.9,3
		C213.4,184.9,215.9,191.6,216.8,195"/>
	<path class="st1" d="M433.3,247.7c-11.7-0.2-23.2-2.3-34.6-6.1c0.7-0.1,1.5-0.2,2.4-0.3c0.8-0.1,1-1,0.7-1.6
		c-3-6.2,0.2-6.9,6.7-8.2c0.6-0.1,1.1-1,0.7-1.5c-0.6-0.8-4.6-4.9-6.3-8.3c16.8,2.8,34.1,2.2,51,0c15.8-2.1,29.6-7.1,43.8-13.6
		C483.9,214.5,486.8,236,433.3,247.7"/>
	<path class="st1" d="M442.5,198L442.5,198c-11.8,5.4-25.1,8.3-38.3,8.9c-2-3,0-5.2,6.5-9.5c0.9-0.6,0.4-2-0.8-1.7
		c-3.5,0.7-7.6,0-11-0.7c0.4-1.3,0.9-2.5,1.4-3.6c9.7-1.2,19.4-4.5,27.4-9.7h0c0.4-0.1,0.8-0.2,1.2-0.3
		c11.1-3.2,19.8-13.4,27.7-20.8c7.8-7.3,13.3-15.4,20.3-23.1C477.8,163.8,461.3,181.9,442.5,198"/>
	<path class="st1" d="M432.9,174L432.9,174c-9.7,6.2-19.6,10.5-31,12.8c1.3-5,0.5-9-8-11.5c9.3-1.7,17.3-6.5,24.9-11.3
		c7.1-4.5,12.7-10.3,18.9-15.9c8.1-7.3,15.7-15.1,23.2-22.9c-2.1,11.7-9.1,23.3-16.2,33C441.7,162.1,437.7,168.6,432.9,174"/>
	<path class="st1" d="M451.3,216.1c-15.9,1.7-31.2,2.4-47.2,0.9l6-2.8c0.6-0.3,0.7-1.1,0.2-1.5c-0.5-0.4-1-0.8-1.5-1.2
		c10.6-0.5,20.4-3.3,29.5-8.1c13.4-0.8,29.2-5.7,42.4-12.2c4.9-2.4,9.4-5,13.4-7.6C482.6,199.3,468.5,209.5,451.3,216.1"/>
	<path class="st1" d="M388.9,296.6c-4-0.6-8.1-1.8-12.1-3.4h0c-7.7-4.8-14.7-10.4-20.7-17.4c0.7,0,1.4,0,2.2,0.2
		c1,0.2,2.6,1.3,3.1,0c2-6.1,3.5-9.1,10.8-8.7c1,0.1,1.5-0.8,1.3-1.6c5.9,14,18.8,24.5,33.9,30.6
		C401.9,296.6,394.3,297.5,388.9,296.6"/>
	<path class="st1" d="M416.4,288.5c-7.1-0.9-14.6-3.5-21.7-6.3c-0.1-0.1-0.2-0.2-0.3-0.3c-6.6-6.3-10.7-13.1-14.7-20.4
		c1,0.2,2,0.3,2.9,0.4c0.9,0.1,1.4-0.8,1.3-1.5c-0.5-3-0.4-4.6,0.8-5.5c8.4,6.5,18.1,11.7,28.4,15.9c11.3,6.6,22.7,13.4,35.6,16
		C438,287.7,427.1,289.8,416.4,288.5"/>
	<path class="st1" d="M421.4,269.3L421.4,269.3c-10.7-5.7-20.6-12.3-30.5-19.4c-0.2-3,0.2-4.8,1.5-6c11.1,4.9,23.1,7.4,35.2,7.7
		c1.5,0.8,3,1.5,4,1.8c4.1,1.1,8.6,1.6,12.9,1.5c9.7,0,21.7-3.2,32.4-5.4c-0.3,0-14.3,17.6-35.3,20
		C434.9,270.3,428,270.2,421.4,269.3"/>
	<path class="st1" d="M393.7,195c-0.2,1,0,2,0.6,2.8c0.6,0.8,1.6,1.4,2.9,1.6c0.5,0.1,1.1,0.1,1.6,0.2c-0.2,0.2-0.4,0.3-0.6,0.5
		c-0.7,0.5-1.5,1.1-2.2,1.5c-1,0.7-1.7,1.8-1.7,3c0,1.1,0.5,2.1,1.4,2.7l1.3,1c2,1.5,4.3,3.2,4.8,4.1c-0.3,0.4-1.4,1.2-4.8,2.8
		c-1,0.5-1.7,1.3-1.9,2.4c-0.3,1-0.1,2,0.6,2.9c0.6,0.8,1.2,1.5,1.8,2.2c1.3,1.7,3.4,4.2,3.3,4.9c0,0-0.6,0.8-4.3,1.5
		c-1.2,0.2-2.1,0.8-2.7,1.8c-0.6,1-0.7,2.3-0.2,3.5c1,2.2,1,2.9,1,2.9c-0.5,0.4-2.8,0.6-4.5,0.8c-0.7,0.1-1.3,0.1-2,0.2
		c-1,0.1-1.9,0.6-2.5,1.4c-0.6,0.8-0.9,1.7-0.8,2.5l0.1,0.5c0.3,2.6,0.6,5-0.1,5.8c-0.2,0.3-1,0.7-3.2,0.9c-1.2,0.1-2.3,0.6-3,1.4
		c-0.7,0.8-1.1,1.9-0.9,3.1c0.3,1.7,0,2.3,0,2.3c0,0-0.3,0.1-1,0.1c-1.1,0-2.5-0.3-4.1-0.5c-1.1-0.2-2.1-0.4-3.3-0.5l-0.4,0
		c-1.4,0-2.6,0.6-3.4,1.7c-0.8,1.2-1,2.7-0.3,4c0.1,0.3,0.3,0.5,0.4,0.7c-0.4,0-2.1-0.1-2.1-0.1c-1.9,0-3.7,1.3-4.1,3l-0.1,0.3
		l0,0.3c0.2,4.2-1.8,3.8-3.4,4.5c0.2-1,0.6-2,0.8-2.7c0.3-1.3,0.7-2.5,0.8-3.5c0.4-2.4,0.8-4.9,1.2-7.3c5.5-2.3,11.4-8.1,12.5-12.6
		c2-8.1-1.9-14.4-5.4-20c-4.4-7.1-9.1-19.7-2.4-29.1c5-7.1,16.6-11.2,24.8-15.7c3.1-1.7,6.6-0.1,7.9,3
		C397.1,184.9,394.5,191.6,393.7,195"/>
</g>
</svg>
