<?xml version="1.0" encoding="utf-8"?>
<!-- Generator: Adobe Illustrator 23.0.1, SVG Export Plug-In . SVG Version: 6.00 Build 0)  -->
<svg version="1.1" id="Layer_1" xmlns="http://www.w3.org/2000/svg" xmlns:xlink="http://www.w3.org/1999/xlink" x="0px" y="0px"
	 viewBox="0 0 595.3 595.3" style="enable-background:new 0 0 595.3 595.3;" xml:space="preserve">
<style type="text/css">
	.st0{fill:#FFFFFF;}
	.st1{fill:#1C8452;}
	.st2{fill:#DA2030;}
</style>
<g>
	<path class="st0" d="M264.4,18.2C233.2,47,196.7,65.4,156,76C116.7,86.3,73.6,89.1,28,87C30.2,194,50.8,289.9,94,372.1
		c43.5,82.8,110,151.8,203.6,204.4c93.7-52.6,160.1-121.6,203.6-204.4c43.2-82.2,63.8-178,66-285.1c-45.6,2.1-88.7-0.7-128.1-11
		C398.6,65.4,362,47,330.9,18.2H264.4z"/>
	<path class="st0" d="M265.5,39.1C209.6,91.7,133.7,106,47.8,101.2c2.9,200.2,75.4,358.4,249.8,455.3
		C472,459.6,544.6,301.4,547.4,101.2c-85.9,4.8-161.8-9.5-217.7-62.1H265.5z"/>
	<path class="st1" d="M65.4,251.2c30.9,129.7,104.1,234.1,232.2,305.3c128.1-71.2,201.3-175.5,232.2-305.3H65.4z"/>
	<path class="st2" d="M265.5,39.1C209.6,91.7,133.7,106,47.8,101.2c0.7,47.7,5.3,93,14.4,135.7h470.9c9-42.7,13.7-88,14.4-135.7
		c-85.9,4.8-161.8-9.5-217.7-62.1H265.5z"/>
	<path class="st1" d="M347.6,187.4c-0.6-1.1-1.7-2-2.9-2.3l-4.2-1.1c-2.2-0.6-4.5,0.5-5.4,2.6c-3.1,7.2-7,12.2-11.5,15.5
		c-4.5,3.3-9.7,4.9-16.2,4.9c-9.9-0.1-17.5-3.8-24.3-12.1c-6.7-8.4-10.1-18.7-10.1-31.7c0-10,2.5-17.4,7-22.9
		c4.6-5.5,10.1-8,17.7-8.1c5.5,0,10.1,1.7,14.3,5.3c4.2,3.5,9.3,10.5,14.6,20.7c0.9,1.8,2.9,2.8,4.9,2.4l5.6-1c1.2-0.2,2.3-0.9,3-2
		c0.7-1,1-2.3,0.7-3.5l-9.2-43.8c-0.3-1.3-1.1-2.4-2.3-3.1c-1.2-0.6-2.6-0.8-3.8-0.3c-2.3,0.9-4.3,1.5-5.8,1.8l-0.1,0
		c-1.6,0.4-2.9,0.5-3.9,0.5c-1,0-4.6-0.3-10.3-0.8c-5.8-0.6-11-0.9-15.4-0.9c-19.5,0-35,4.5-45.9,14.1c-5.1,4.6-9,10.2-11.6,16.8
		l-3.6-10.6c-0.4-1.2-0.6-2.2-0.7-2.5c-0.1-0.5-0.1-0.8-0.1-1.1l0,0c0.1-0.2,0.5-0.5,1.5-0.9c1.8-0.7,2.9-2.4,2.9-4.3v-4.6
		c0-1.2-0.5-2.4-1.4-3.3c-0.9-0.9-2.1-1.4-3.3-1.4h-49.7c-1.2,0-2.4,0.5-3.3,1.4c-0.9,0.9-1.4,2.1-1.4,3.3v4.6
		c0,1.8,1.1,3.5,2.8,4.2c1,0.4,1.5,0.9,1.6,1c0,0,0,0.1,0,0.2c0,0.4,0,0.9-0.1,1.4c-0.1,0.6-0.3,1.1-0.5,1.6l-0.1,0.2l-13.7,37.9
		c-0.6-0.7-1.2-1.5-1.8-2.2c-5.7-5.8-15-10.3-28.5-14.7l0,0l-13.8-4.3l0,0c-5.5-1.7-9-3.6-9.8-4.4l0,0c-0.9-0.9-1.3-1.6-1.4-3.4
		c0.1-1.9,0.5-3,2.4-4.5c1.9-1.4,4.4-2.3,8.2-2.3c5,0,9.6,1.6,14.3,5.1c4.7,3.5,8.8,8.6,12.4,15.5c0.9,1.7,2.8,2.7,4.7,2.5l4.6-0.6
		c2.5-0.3,4.2-2.6,4-5l-3.4-34.7c-0.2-1.6-1.1-2.9-2.5-3.6c-1.4-0.7-3-0.7-4.4,0.1c-1.5,0.8-2.6,1.3-3.5,1.6
		c-0.8,0.3-1.5,0.4-1.9,0.4c-2.1,0-7.1-0.5-14.3-1.6c-7.4-1.1-13.6-1.7-18.6-1.7c-13.5,0-24.8,3.3-33.3,10.3
		c-8.5,6.9-12.9,16.9-12.8,28.3c0,8.6,2.5,16.2,7.7,22.1c5.2,5.9,12.8,10.2,22.7,13.4l13.1,4.3l0.1,0c0.8,0.2,1.8,0.5,3.1,1
		c5.7,1.8,9.7,3.9,12,5.9c2.3,2,2.9,3.5,2.9,5.3c-0.1,3.3-1,4.9-3.6,6.8c-2.7,1.8-7.1,3.1-13.5,3.1c-9.4,0-16.3-2.6-21.8-7.5
		c-5.5-5-9.1-12.1-10.7-22.2c-0.4-2.3-2.4-4-4.7-3.9l-4.5,0.2c-1.3,0-2.4,0.6-3.3,1.5c-0.8,0.9-1.3,2.1-1.2,3.4l2.8,46.1
		c0.1,1.7,1.1,3.2,2.6,3.9c1.5,0.7,3.3,0.6,4.7-0.4c1.6-1.1,2.9-1.8,3.8-2.1c0.9-0.3,1.7-0.5,2.8-0.5c0,0,1.5,0.1,3.6,0.4
		c2.1,0.3,5.1,0.8,8.8,1.5c7.7,1.3,14.9,2,21.6,2c0,0,0,0,0.1,0c8.8,0,16.8-1.1,24-3.3c0.8,0.6,1.8,1,2.9,1h36.9
		c1.2,0,2.4-0.5,3.3-1.4c0.9-0.9,1.4-2.1,1.4-3.3V219c0-1.2-0.5-2.4-1.4-3.3c-0.9-0.9-2.1-1.4-3.3-1.4c-2.1,0-3-0.5-3.3-0.8
		c-0.3-0.3-0.6-0.6-0.6-2.3c0-0.8,0.1-2.1,0.5-3.8c0.4-1.7,0.9-3.7,1.7-5.8l5.2-14.6c8.7,1,15.7,3.7,21.3,7.8
		c6.4,4.9,8.8,9.5,8.9,14.9c0,2-0.5,2.8-0.8,3.1c-0.2,0.3-1.4,1.1-3.8,1.5c-2.2,0.4-3.8,2.3-3.8,4.5v4.5c0,1.2,0.5,2.4,1.4,3.3
		c0.9,0.9,2,1.4,3.3,1.4h55.8c1.2,0,2.4-0.5,3.3-1.4c0.4-0.4,0.8-1,1-1.6c8.7,3.7,18.6,5.6,29.3,5.6c0.1,0,0.1,0,0.2,0
		c4,0,8.8-0.4,14.7-1.3c5.6-0.8,9.6-1.2,11.2-1.2c1.2,0,2.4,0.1,3.7,0.3c1.3,0.2,2.6,0.5,4,0.9c2.4,0.8,4.9-0.5,5.8-2.9l12.5-35.6
		C348.3,189.9,348.2,188.5,347.6,187.4z M195.5,168.6c-2.5-0.8-5.1-1.5-7.9-2l4.8-13.1l4.8,15.7C196.6,168.9,196,168.7,195.5,168.6z
		"/>
	<path class="st0" d="M138.8,214.5c2.9-0.6,4.9-1.7,6.5-3.4c1.4-1.4,4.1-6.4,6.9-14.1l9.5-26.1c-0.9-1.6-2-3-3.2-4.4
		c-4.6-4.8-13.4-9.3-26.6-13.5l-13.8-4.3c-5.8-1.9-9.6-3.7-11.6-5.4c-1.9-1.7-2.9-4-2.9-6.8c0-3.3,1.4-6,4.2-8.2
		c2.8-2.2,6.5-3.2,11-3.2c6,0,11.7,2,17,6c5.4,4,9.9,9.7,13.7,17l4.6-0.6l-3.4-34.7c-1.7,0.9-3.1,1.6-4.3,2
		c-1.2,0.4-2.3,0.6-3.4,0.6c-2.7,0-7.7-0.5-15-1.6c-7.3-1.1-13.3-1.6-17.9-1.6c-12.8,0-22.9,3.1-30.4,9.3
		c-7.4,6.2-11.2,14.4-11.2,24.7c0,7.7,2.2,14.1,6.5,19c4.4,5,11.2,9,20.6,12l13.1,4.3c0.7,0.2,1.7,0.5,3.1,1
		c12.1,3.8,18.1,9,18.1,15.6c0,4.6-1.9,8.1-5.7,10.7c-3.8,2.6-9.1,3.8-16,3.8c-10.2,0-18.5-2.9-24.9-8.7
		c-6.4-5.8-10.5-14.1-12.2-24.9l-4.5,0.2l2.8,46.1c1.8-1.3,3.4-2.2,4.8-2.7c1.4-0.5,2.8-0.8,4.3-0.8c1.3,0,5.7,0.7,13.2,2
		c7.5,1.3,14.5,2,20.8,2c8.3,0,15.7-1,22.3-3V219C135,216.8,136.6,214.9,138.8,214.5z"/>
	<path class="st0" d="M228.2,163.5c0-6.3,0.6-12.2,2-17.6l-5.6-16.6c-0.4-1.4-0.7-2.5-0.8-3.2c-0.1-0.8-0.2-1.4-0.2-2.1
		c0-1,0.4-2,1.2-2.8c0.8-0.9,1.9-1.6,3.3-2.1v-4.6H193h-14.8v4.6c1.6,0.7,2.7,1.5,3.4,2.3c0.7,0.8,1,1.9,1,3.1
		c0,0.8-0.1,1.5-0.2,2.3c-0.2,0.8-0.4,1.6-0.7,2.4l-25.2,69.4c-2.9,7.9-5.5,13.1-7.8,15.6c-2.3,2.5-5.3,4.1-9,4.8v4.6h37V219
		c-2.8,0-4.9-0.7-6.4-2c-1.4-1.3-2.2-3.2-2.2-5.8c0-1.3,0.2-2.9,0.6-4.8c0.4-1.9,1-4,1.9-6.3l6.4-18c5.9,0.4,11.3,1.4,16.1,3.1
		c4.1,1.5,7.8,3.4,11.1,5.9c7.1,5.3,10.7,11.5,10.7,18.6c0,2.7-0.7,4.8-2,6.2c-1.3,1.4-3.5,2.4-6.4,2.9v4.6h55.8v-0.3
		c-5.6-2.9-10.7-6.6-15.3-11.2C234.4,199.6,228.1,183,228.2,163.5z M194,172.9c-0.3-0.1-0.7-0.2-1-0.3c-3.6-1.1-7.5-1.9-11.7-2.4
		l11.4-31.4l0.3,0.9l11.7,38.3C201.4,175.9,197.9,174.2,194,172.9z"/>
	<path class="st0" d="M336.3,155l-5.6,1c-5.5-10.5-10.7-17.8-15.7-22.1c-5-4.2-10.8-6.3-17.3-6.3c-8.8,0-15.9,3.3-21.3,9.8
		c-5.4,6.5-8.1,15.1-8.1,25.8c0,13.8,3.7,25.3,11.1,34.6c7.4,9.2,16.7,13.8,27.9,13.8c7.3,0,13.6-1.9,18.9-5.8
		c5.3-3.8,9.7-9.6,13-17.4l4.2,1.1L331,225.2c-1.6-0.5-3.1-0.8-4.6-1.1c-1.6-0.2-3-0.4-4.5-0.4c-2.1,0-6.1,0.4-11.8,1.2
		c-5.7,0.8-10.4,1.3-14,1.3c-18.9,0-34.2-5.8-45.8-17.4c-11.6-11.6-17.5-26.7-17.5-45.3c0-17,4.8-29.8,14.4-38.4
		c9.6-8.6,23.9-12.9,42.8-12.9c4.2,0,9.2,0.3,15,0.8c5.7,0.6,9.3,0.8,10.7,0.8c1.5,0,3.2-0.2,5-0.7c1.9-0.4,4-1.1,6.4-2L336.3,155z"
		/>
	<path class="st1" d="M164,473.4c-1.7,0.5-4.1,0-5.2-1.2c-2-2.3-4.2-4.7-6.6-7.4c-2.6-3-4.7-5.5-6.4-7.5c-1.3-1.6-1.2-4.7,0.2-6.2
		c7.4-7.8,14.1-14.2,20.2-19.7c6.1-5.4,11.8-10.1,17.1-14.2l0,0c7-5.4,10.4-7.1,12.3-8c0.9-0.4,1.1-0.6,1.9-1.9v0v0
		c1.4-2.2,5.9-8.3,11.4-15.8c7.6-10.3,17.2-23.2,22.6-31.6l0-0.1l0,0l0,0c2.9-4.5,5.8-10.6,9.2-17.5c7.2-14.8,16.1-33.1,30.3-48.8
		c16.7-18.4,30.1-30.1,40.2-38.9c2.1-1.8,4-3.5,6.4-5.7c3.2-2.9,8-6.4,13.1-9.9c3.3-2.3,6.8-4.6,10.1-6.7c-0.2-1.7,0.5-3.5,2.1-4.5
		l24.4-15.3c21-13,38.2-28.1,42.5-31.9l3.7-14c-2.7-0.5-6.3-1-9.6-0.8h0c-5.6,0.3-12.4,6.4-12.4,6.4c-2.5,2.2-6.6,1-7.6-2.1
		c0,0-4.9-15.9-1.5-25.4c2.5-7.2,7-10.5,11.4-13.7c1.4-1,2.7-2,3.9-3v0c1.3-1.2,2.3-2.2,3.1-3.1c2.5-2.6,4.6-4.7,10.7-8.7h0
		c11.4-7.3,18.8-7.2,28.3-6.9c4.5,0.1,9.5,0.2,15.4-0.6c1.8-0.2,3.6-0.5,5.2-0.8c6-1,10.5-1.7,19-0.4h0c0,0,0,0,0.1,0v0
		c8.9,1.4,16.6,2.2,20.6,2.6c0,0,0,0,0.1,0c1-1.3,1.9-2.3,4.2-2.4v0c3.9-0.2,5.2,2,5.5,9.4l0,0c0.2,3.8,1.2,5.4,1.9,6.3
		c0.2,0.3,0.4,0.5,0.6,1c1.6,2.8,1.8,4.6-0.2,6.5c2,2,3.6,3.9,3.6,6.3c0,3.5-2,5.6-7,5.7c-0.2,0.7-0.7,1.3-1.3,2.3h0
		c-0.4,0.6-0.8,1.3-1.4,2.3v0c-0.9,1.6-1.8,2.6-2.7,3.3c-0.1,1.1-0.2,2.5-0.4,4.4c-0.1,1-0.2,2.2-0.3,3.5
		c-1.5,18.2-4.8,41.4-5.2,44.5l-1.2,23c2.2,5.1,11.6,27.1,12,36.8h0c0,1.2,0.2,2.8,0.3,4.3c0.6,8,1,14.8-4.6,27.9
		c0.4,1.2,0.5,2.5,0,3.5l0,0l0,0c-2.2,4.9-4.6,9.8-7.1,14.7c-2.6,5-5.2,10-8,14.9c-14.5,25.7-33.1,52-56.4,77l0,0
		c-3,3.2-5.9,4.1-8.4,4.8c-0.9,0.3-1.7,0.5-1.9,0.7l0,0c-0.1,0.1-0.3,0.6-0.5,1.1c-0.5,1.6-1,3-2.7,4.3c-0.3,0.3-0.3,0.8-1.1,2
		c-2,3.2-4.9,7.7-7.4,10.3c0,0,0,0,0,0l-0.1-0.1c0.4,1.2,0.7,2.6,0.1,4.9l0,0.1c0,0.2,0,0.7,0.1,1.2c0.4,3.9,0.8,7.1-6,9.4l0,0
		c-4,1.4-7.1,2-9.6,2.1c3.2,23.7,10.1,45.8,10.2,45.9c0,0.1,0.2,1.3,0.2,1.4c0,0,0-2,3.4,0.3c2.4,1.6,2.7,5.3,0.6,7.3
		c-3.8,3.6-7.7,7.2-11.9,10.9c-4.4,3.9-8.5,7.4-12.3,10.6c-2.3,1.9-5.6,1-7-1.2c-4.8,1.4-12.5,3.4-15.4,3.1h0
		c-3.8-0.3-5-2.3-5.9-4.5c0,3.5-5.2,6.8-7.9,3.9c0,0-0.8-0.8-1.4-1.9c-2.8,2.4-7.8,0.4-7.8-3.5c0,0,0-5,4.4-14.2
		c5.5-11.4,14.8-10,14.8-10c0.8,0.1,2.9,1.5,3.3,2.2l0.5,0.8l9.7-3.4l-4.4-48.4c-16,5.8-25.3,8-32.1-11.4l0,0
		c-2.8-7.8-5.1-12-7.6-13.9c-1.9-1.4-4.3-1.3-7.6-0.6c-3.6,0.8-7,3-10.8,5.5c-4.7,3.1-10,6.5-17.6,8.8h0c-1.5,0.4-3.3,1-5.5,1.8
		c-2.2,0.7-4,1.3-5.4,1.8c-9,3.1-17,6.3-21.3,8.5l0,0l0,0c-2,1.1-8.4,8.2-15.5,16.1c-9,10-19,21.2-25.3,24.9
		c-3.6,2.1-6.9,4.8-10.6,7.8c-3.9,3.1-8.1,6.5-13.2,9.9c-1.3,0.9-3.7,0.8-5.2-0.1l0,0c0.1,0.1,0.1,0.1,0,0c0,0-0.6-0.4-0.6-0.5
		c-0.6-0.5-1.8-1.6-3.7-3.4c-1.2-1.1-2.4-2.2-3.6-3.5c-6.3-6.1-12.3-12.2-17.9-18.2C163.4,477.3,163.2,475.1,164,473.4z"/>
	<path class="st0" d="M507.4,132.4c-3.2-3.2-3.6-2,0-4c3.6-2-1.6-1.6-2-11.2c-0.4-9.6-0.8-2-4.4-2.4c-3.6-0.4-12-1.2-22-2.8
		c-10-1.6-14.1,0-22.9,1.2c-18.4,2.5-26.3-3.2-41.8,6.8c-8,5.2-8.4,6.8-13.2,11.2c-4.8,4.4-11.2,6.8-14,14.8c-2,5.8-0.3,15,0.8,19.7
		c1.5-6.5,4.1-14.3,10-15.5l27.6-5.4c1-0.2,2,0.5,2.2,1.5c0.2,1-0.5,2-1.5,2.2l-27.6,5.4c-3.7,0.7-5.7,6.9-7,12.3
		c3-2.2,7.8-5,12.3-5.3c7.2-0.4,15.6,2,15.6,2l-5.2,20c0,0-19.6,18.1-44.2,33.3c-24.4,15.3-24.4,15.3-24.4,15.3l2.7,1.4
		c-9,5.6-21.3,13.7-27.4,19.2c-10.3,9.2-25.7,21.6-46.3,44.2c-20.6,22.6-29.8,51.4-39.1,65.8c-9.2,14.4-30.8,42.1-33.9,47.3
		c-3.1,5.1-2.1,1-15.4,11.3c-10.3,7.9-22.4,18.3-36.8,33.4c4.2,5,8.5,10,12.9,14.8l29.1-16.3c0,0-10.1,11.9-23.3,22.7
		c8,8.5,16.3,16.8,25,24.9c10.3-6.8,16.3-13.1,24-17.8c10.3-6.2,35-38.1,41.1-41.1c6.2-3.1,19.6-8.2,32.9-12.3
		c13.4-4.1,19.6-12.3,28.8-14.4c9.2-2,14.4,0,20.6,17.5c6,17.1,15.1,12.5,31.9,6.5l5.2,58.1l-16.8,5.8l-2.4-4.1c0,0-5.9-0.9-9.9,7.3
		c-3.9,8.3-3.9,12.2-3.9,12.2l3.9-4.3l3.4,5.7c-0.4-1-0.2-2.8,4-4.3c6.4-2.2,3.9,4.1,7.4,4.4c3.5,0.3,17.7-4.2,17.7-4.2
		s1.1,0.2,1.3,3.3c8.3-6.9,16.3-14,24-21.3c-5.5-3.7-5.5-4.1-5.5-4.1s-8.4-26.6-11.1-52.9c2.5,1.2,6.1,1.6,13.5-0.9
		c4.8-1.6,2-4.3,2.9-7.5c0.9-3.2-2.4-3.3,1.2-6.9c3.5-3.6,8.3-12.3,9.1-12.9c1.2-0.9,1-3.4,2.8-5.1c2.4-2.2,6.4-1.4,10.1-5.3
		c32.1-34.3,55-71.1,70.7-105.3l-1.3-0.7c0.2-0.3,0.3-0.6,0.4-0.8c7.2-15.7,5.2-22.1,4.8-32.1c-0.4-10-12-36.1-12-36.1l1.2-24.1
		c0,0,3.6-24.9,5.2-44.5c1.6-19.7,0.4-7.3,4-13.2c3.6-6,2.4-2.8,0.4-5.6c-2-2.8,1.2-1.2,6-1.2C513.4,138,510.6,135.6,507.4,132.4z"
		/>
	<path class="st1" d="M438.6,130.3c-5,0-9,3.5-9,7.7c0,4.3,4,7.7,9,7.7c5,0,9-3.5,9-7.7C447.6,133.8,443.5,130.3,438.6,130.3z"/>
	<path class="st1" d="M153.2,65.1c39.6-10.3,75-28.3,105.1-56.6c0.6-0.5,3.1-1.5,3.8-1.5h70.9c0.8,0,3.3,1,3.8,1.5
		C367,36.8,402.5,54.8,442,65.1c39.8,10.4,83.8,12.9,130.7,10.3c3-0.2,6,2.7,5.9,5.7c-1.6,111.2-22.6,210.8-67.5,296.2
		c-44.9,85.5-113.7,156.6-210.8,210.5c-1.2,0.6-4.3,0.6-5.4,0c-97.1-54-165.9-125-210.8-210.5c-44.9-85.4-65.9-185-67.5-296.2
		c0-3,2.9-5.9,5.9-5.7C69.4,78.1,113.4,75.5,153.2,65.1L153.2,65.1z M264.4,18.2C233.2,47,196.7,65.4,156,76
		C116.7,86.3,73.6,89.1,28,87C30.2,194,50.8,289.9,94,372.1c43.5,82.8,110,151.8,203.6,204.4c93.7-52.6,160.1-121.6,203.6-204.4
		c43.2-82.2,63.8-178,66-285.1c-45.6,2.1-88.7-0.7-128.1-11C398.6,65.4,362,47,330.9,18.2H264.4z"/>
</g>
</svg>
